<?xml version="1.0" encoding="utf-8"?>
<!-- Generator: Adobe Illustrator 17.0.0, SVG Export Plug-In . SVG Version: 6.00 Build 0)  -->
<!DOCTYPE svg PUBLIC "-//W3C//DTD SVG 1.1//EN" "http://www.w3.org/Graphics/SVG/1.1/DTD/svg11.dtd">
<svg version="1.1" id="Layer_1" xmlns="http://www.w3.org/2000/svg" xmlns:xlink="http://www.w3.org/1999/xlink" x="0px" y="0px"
	 width="310px" height="50px" viewBox="0 0 310 50" enable-background="new 0 0 310 50" xml:space="preserve">
<g>
	<path fill="#6FA2C2" d="M297.245,24.407v2.569c0.295,0.15,0.761,0.3,1.398,0.456c0.634,0.158,1.337,0.235,2.111,0.235
		c1.233,0,2.224-0.267,2.968-0.801c0.748-0.534,1.12-1.326,1.12-2.375c0-0.774-0.245-1.349-0.731-1.727
		c-0.488-0.377-1.25-0.712-2.282-1.008l-3.426-0.967c-0.55-0.165-1.082-0.372-1.586-0.622c-0.509-0.248-0.955-0.569-1.34-0.966
		c-0.388-0.396-0.694-0.876-0.924-1.436c-0.23-0.562-0.346-1.232-0.346-2.002c0-0.958,0.189-1.791,0.567-2.501
		c0.377-0.708,0.899-1.298,1.56-1.768c0.664-0.47,1.437-0.819,2.322-1.049c0.883-0.229,1.831-0.346,2.844-0.346
		c1.272,0,2.38,0.106,3.329,0.319c0.95,0.212,1.791,0.418,2.529,0.622v4.281h-2.93v-2.321c-0.204-0.093-0.548-0.193-1.036-0.303
		c-0.489-0.111-1.11-0.165-1.863-0.165c-0.719,0-1.336,0.073-1.851,0.22c-0.516,0.149-0.935,0.349-1.258,0.606
		c-0.32,0.26-0.56,0.559-0.717,0.9c-0.157,0.34-0.234,0.696-0.234,1.064c0,0.424,0.073,0.781,0.222,1.076
		c0.144,0.296,0.353,0.543,0.618,0.746c0.269,0.204,0.582,0.372,0.941,0.512c0.358,0.137,0.758,0.261,1.201,0.372l2.983,0.773
		c0.553,0.148,1.106,0.34,1.657,0.581c0.553,0.239,1.056,0.562,1.507,0.967c0.451,0.405,0.817,0.902,1.092,1.491
		c0.276,0.589,0.413,1.308,0.413,2.155c0,1.932-0.662,3.433-1.989,4.502c-1.326,1.068-3.14,1.602-5.442,1.602
		c-0.35,0-0.81-0.022-1.38-0.068c-0.572-0.046-1.164-0.112-1.78-0.194c-0.62-0.083-1.227-0.189-1.826-0.317
		c-0.599-0.129-1.107-0.278-1.533-0.443v-4.669H297.245z M282.689,14.793c-0.15-0.421-0.26-0.772-0.331-1.049
		c-0.076-0.277-0.13-0.516-0.167-0.717h-0.056c-0.036,0.202-0.091,0.441-0.167,0.717c-0.071,0.278-0.193,0.628-0.357,1.049
		l-2.128,5.471h5.111L282.689,14.793z M272.052,27.5h1.66l7.016-17.07h3.423l6.491,17.07h1.714v2.266h-7.072V27.5h1.769
		l-1.658-4.805H278.6l-1.796,4.805h1.988v2.266h-6.74V27.5z M18.451,15.801v-4.964c-1.304-0.527-3.605-1.054-6.044-1.054
		c-6.46,0-10.508,4.189-10.508,10.233c0,5.517,3.299,9.84,10.258,9.84c2.301,0,4.796-0.497,6.042-0.913l0.112-5.297h-2.771
		l-0.111,3.495c-0.721,0.138-2.135,0.276-3.466,0.276c-3.965,0-6.628-3.104-6.628-7.516c0-4.851,2.414-7.678,7.046-7.678
		c1.467,0,2.577,0.278,3.297,0.472v3.105H18.451z M20.834,29.525h6.932v-2.273h-1.94l0.053-12.145h-5.293v2.272h2.188l-0.055,9.873
		h-1.886V29.525z M22.194,10.007c0,1.192,0.942,2.134,2.134,2.134c1.192,0,2.134-0.942,2.134-2.134c0-1.195-0.942-2.138-2.134-2.138
		C23.136,7.87,22.194,8.813,22.194,10.007 M29.319,17.379h2.19c-0.028,2.496-0.084,6.185-0.084,8.042
		c0,3.243,1.192,4.435,4.241,4.435c1.221,0,2.412-0.331,3.188-0.72l0.112-2.272c-0.694,0.278-1.581,0.554-2.413,0.554
		c-1.441,0-2.024-0.665-2.024-3.299c0-2.162,0.029-4.436,0.056-6.739h4.13v-2.272h-4.13l0.112-3.465l-3.134,0.221l-0.056,3.244
		h-2.19V17.379z M38.661,17.379h1.553l5.323,12.923l-0.11,0.302c-1.192,3.189-2.524,3.773-3.909,3.773
		c-0.639,0-1.578-0.11-2.024-0.306v2.438c0.446,0.169,1.192,0.306,1.968,0.306c1.857,0,3.661-0.609,4.962-2.301
		c0.83-1.081,1.802-3.77,2.273-5.073l4.38-12.063h1.443v-2.272H48.42v2.272h1.886l-2.55,7.404c-0.25,0.721-0.502,1.525-0.639,2.164
		h-0.057c-0.193-0.639-0.359-1.443-0.637-2.164l-2.773-7.404h1.609v-2.272h-6.6V17.379z M64.333,29.525H71.1v-2.273H68.91
		l0.111-13.059h0.057c0.276,0.998,0.471,1.995,0.858,2.966l4.853,12.366h3.105l4.964-12.863c0.332-0.833,0.498-1.72,0.746-2.58
		l0.085,0.056l-0.11,13.114h-1.916v2.273h7.071v-2.273h-2.107l-0.111-14.861h2.218v-2.274H82.69L77.144,24.56
		c-0.192,0.501-0.302,1.054-0.443,1.581h-0.054c-0.139-0.527-0.25-1.08-0.446-1.581l-5.599-14.443h-6.375v2.274h2.188l-0.11,14.861
		h-1.971V29.525z M103.399,26.308c-1.245,0.639-2.826,1.109-4.629,1.109c-2.856,0-4.908-1.803-4.935-4.602h10.314v-0.417
		c0-4.464-2.188-7.623-6.514-7.623c-4.658,0-7.071,3.327-7.071,7.596c0,4.521,2.829,7.459,7.598,7.484
		c2.162,0,4.074-0.581,5.073-0.995L103.399,26.308z M93.835,20.71c0.11-1.748,0.999-3.663,3.633-3.663
		c2.634,0,3.409,2.189,3.409,3.383v0.28H93.835z M121.449,27.252h-1.942l0.114-19.049h-5.628v2.275h2.631l-0.056,4.629
		c-0.858-0.194-1.83-0.332-2.854-0.332c-4.908,0-7.736,3.466-7.736,8.234c0,4.297,2.552,6.846,6.018,6.846
		c2.469,0,4.046-1.331,4.795-3.271h0.057c-0.14,0.832-0.279,1.915-0.279,2.94h4.88V27.252z M116.459,21.845
		c0,3.354-1.218,5.407-3.714,5.407c-2.33,0-3.495-2.027-3.495-4.713c0-2.831,1.606-5.326,4.465-5.326
		c1.134,0,2.106,0.223,2.744,0.612V21.845z M123.53,29.525h6.93v-2.273h-1.941l0.055-12.145h-5.294v2.272h2.191l-0.056,9.873h-1.885
		V29.525z M124.887,10.007c0,1.192,0.943,2.134,2.136,2.134c1.191,0,2.134-0.942,2.134-2.134c0-1.195-0.943-2.138-2.134-2.138
		C125.83,7.87,124.887,8.813,124.887,10.007 M133.4,19.654h2.771v-2.108c0.471-0.196,1.524-0.5,2.606-0.5
		c2.55,0,3.189,1.248,3.189,3.023v1.082L139,21.318c-2.358,0.11-6.211,0.609-6.211,4.407c0,1.831,1.135,4.13,4.605,4.13
		c3.02,0,4.183-1.691,4.795-3.326h0.053c-0.164,0.97-0.245,2.08-0.245,2.996h4.575v-2.273h-1.942
		c0.026-2.331,0.109-4.63,0.109-6.959c0-3.413-1.359-5.518-5.627-5.518c-3.08,0-4.935,0.942-5.711,1.303V19.654z M135.894,25.476
		c0-2.135,2.8-2.273,6.014-2.301v0.581c0,1.831-1.3,3.661-3.711,3.661C136.726,27.417,135.894,26.558,135.894,25.476"/>
	<g>
		<path fill="#FFFFFF" d="M165.467,15.525c-2.055,0-3.869,0.954-5.548,2.923c-1.682,1.968-2.535,4.215-2.535,6.676
			c0,1.547,0.403,2.79,1.198,3.697c0.78,0.895,1.803,1.328,3.128,1.328h2.607c0.819,0,1.581-0.365,2.328-1.114l0.633-0.633
			l0.439,0.779c0.369,0.662,0.926,0.969,1.748,0.969h2.77c0.925,0,1.641-0.189,2.135-0.562c0.444-0.337,0.652-0.784,0.652-1.408
			c0-0.371,0-1.147-1.927-1.147h-3.344l4.571-11.27h-3.814l-0.884,2.173l-0.723-0.871C168.045,16.029,166.922,15.525,165.467,15.525
			 M160.849,24.631L160.849,24.631c0-1.527,0.514-2.966,1.528-4.27c1.051-1.359,2.237-2.048,3.519-2.048
			c0.68,0,1.262,0.198,1.733,0.587c0.504,0.413,0.772,0.958,0.772,1.569c0,0.343-0.11,0.762-0.339,1.32l-1.537,3.793
			c-0.283,0.709-0.947,1.554-2.498,1.554h-0.779C161.725,27.136,160.849,26.224,160.849,24.631"/>
		<polygon fill="#FFFFFF" points="175.62,12.565 171.814,12.565 170.89,14.827 174.703,14.827 		"/>
		<path fill="#FFFFFF" d="M178.635,5h-3.697c-0.109,0.205-0.214,0.423-0.312,0.667l-0.237,0.58h3.794l0.017-0.042l0.233-0.524
			C178.526,5.436,178.592,5.211,178.635,5"/>
		<polygon fill="#FFFFFF" points="177.043,9.056 173.244,9.056 172.577,10.693 176.378,10.693 		"/>
		<path fill="#FFFFFF" d="M183.598,15.811c-1.118,0-1.882,0.603-2.405,1.888l-0.23,0.582l-3.385,8.333
			c-0.313,0.761-0.381,1.217-0.381,1.464c0,0.629,0.24,1.093,0.753,1.459c0.569,0.405,1.393,0.612,2.447,0.612h3.26
			c0.94,0,1.66-0.188,2.142-0.559c0.442-0.337,0.647-0.785,0.647-1.41c0-0.372,0-1.147-1.906-1.147h-3.324l3.31-8.196
			c0.439-1.071,0.504-1.559,0.504-1.753c0-0.342-0.129-0.621-0.406-0.876C184.337,15.941,184.001,15.811,183.598,15.811"/>
		<path fill="#FFFFFF" d="M184.932,9.267c-0.612,0-1.116,0.208-1.544,0.634c-0.235,0.237-0.396,0.501-0.5,0.792h4.089
			c-0.105-0.291-0.267-0.556-0.504-0.792C186.048,9.475,185.544,9.267,184.932,9.267"/>
		<path fill="#FFFFFF" d="M186.796,12.565h-3.729c0.09,0.145,0.194,0.287,0.321,0.418c0.428,0.425,0.931,0.633,1.544,0.633
			c0.613,0,1.118-0.208,1.542-0.633C186.603,12.852,186.707,12.71,186.796,12.565"/>
		<path fill="#FFFFFF" d="M204.375,15.762h-1.814c-0.432,0.209-0.801,0.547-1.106,1.069l-0.511,0.871l-0.613-0.802
			c-0.422-0.556-0.991-0.919-1.682-1.138h-3.279c-1.424,0.391-2.739,1.274-3.981,2.692c-1.726,1.967-2.599,4.205-2.599,6.649
			c0,1.47,0.387,2.615,1.189,3.506c0.781,0.871,1.78,1.294,3.055,1.294c0.637,0,1.341-0.228,2.089-0.683l1.722-1.041l-1.547,3.898
			h-4.871c-2.32,0-4.176,0.379-5.516,1.125c-1.066,0.596-1.919,1.41-2.529,2.418c-0.61,0.999-0.917,2.087-0.917,3.227
			c0,1.774,0.618,3.207,1.886,4.384c1.282,1.188,2.852,1.768,4.8,1.768c3.751,0,6.547-2.378,8.542-7.269l1.033-2.535h3.861
			c0.925,0,1.641-0.193,2.133-0.569c0.449-0.346,0.658-0.796,0.658-1.422c0-0.366,0-1.128-1.927-1.128h-3.469l5.529-13.61
			c0.42-1.035,0.483-1.504,0.483-1.692c0-0.346-0.123-0.621-0.39-0.87L204.375,15.762z M192.439,24.181L192.439,24.181
			c0-1.409,0.5-2.756,1.491-4.001c1.026-1.292,2.153-1.948,3.349-1.948c0.697,0,1.292,0.185,1.772,0.547
			c0.535,0.401,0.816,0.943,0.816,1.565c0,0.309-0.083,0.664-0.257,1.099l-1.664,4.064c-0.284,0.686-1.003,1.506-2.819,1.506
			C193.42,27.013,192.439,25.98,192.439,24.181 M184.911,38.848L184.911,38.848c0-1.16,0.43-2.082,1.279-2.734
			c0.796-0.609,1.898-0.918,3.275-0.918h4.59l-0.422,0.953c-0.916,2.057-1.75,3.47-2.55,4.313c-0.867,0.916-1.902,1.383-3.074,1.383
			c-0.865,0-1.603-0.293-2.195-0.871C185.213,40.394,184.911,39.677,184.911,38.848"/>
		<path fill="#FFFFFF" d="M214.616,9.267c-0.612,0-1.117,0.208-1.542,0.634c-0.238,0.237-0.399,0.501-0.502,0.792h4.087
			c-0.103-0.291-0.264-0.556-0.5-0.792C215.729,9.475,215.227,9.267,214.616,9.267"/>
		<path fill="#FFFFFF" d="M216.479,12.565h-3.728c0.088,0.145,0.191,0.287,0.32,0.418c0.428,0.425,0.931,0.633,1.545,0.633
			c0.611,0,1.116-0.208,1.541-0.633C216.286,12.852,216.391,12.71,216.479,12.565"/>
		<path fill="#FFFFFF" d="M213.28,15.811c-1.116,0-1.88,0.603-2.404,1.888l-0.228,0.582l-3.385,8.333
			c-0.315,0.761-0.38,1.217-0.38,1.464c0,0.628,0.238,1.093,0.751,1.459c0.57,0.405,1.394,0.612,2.448,0.612h3.262
			c0.937,0,1.656-0.188,2.142-0.559c0.442-0.337,0.646-0.785,0.646-1.41c0-0.372,0-1.147-1.906-1.147h-3.325l3.312-8.196
			c0.437-1.071,0.504-1.559,0.504-1.753c0-0.344-0.129-0.621-0.407-0.876C214.02,15.941,213.684,15.811,213.28,15.811"/>
		<path fill="#FFFFFF" d="M229.753,9.056H226.1l-0.074,0.152l-0.644,1.485h3.768l0.185-0.4
			C229.55,9.815,229.685,9.406,229.753,9.056"/>
		<polygon fill="#FFFFFF" points="228.286,12.565 224.573,12.565 223.592,14.827 227.239,14.827 		"/>
		<path fill="#FFFFFF" d="M226.802,15.762h-3.588l-0.02,0.049h-1.4c-0.936,0-1.657,0.19-2.139,0.565
			c-0.446,0.346-0.651,0.803-0.651,1.446c0,0.384,0,1.106,1.619,1.106h1.313l-2.803,6.914l-0.382,0.887
			c-0.214,0.533-0.322,1.013-0.322,1.432c0,0.612,0.209,1.064,0.654,1.415c0.483,0.381,1.174,0.571,2.053,0.571h3.67
			c0.941,0,1.66-0.187,2.146-0.558c0.439-0.336,0.646-0.785,0.646-1.41c0-0.372,0-1.147-1.929-1.147h-3.305l3.3-8.104h1.955
			c0.923,0,1.643-0.188,2.133-0.559c0.448-0.339,0.654-0.786,0.654-1.411c0-0.372,0-1.147-1.926-1.147h-1.702L226.802,15.762z"/>
		<path fill="#FFFFFF" d="M240.618,15.762h-3.237c-1.406,0.388-2.697,1.254-3.908,2.638c-1.692,1.936-2.551,4.156-2.551,6.602
			c0,1.583,0.399,2.817,1.22,3.771c0.796,0.925,1.815,1.376,3.125,1.376h2.34c0.781,0,1.629-0.406,2.523-1.203l0.683-0.609
			l0.385,0.831c0.194,0.422,0.589,0.981,1.783,0.981h2.626c0.923,0,1.64-0.191,2.132-0.569c0.449-0.343,0.657-0.796,0.657-1.419
			c0-0.367,0-1.129-1.906-1.129h-3.26l3.556-8.791c0.186-0.448,0.278-0.826,0.278-1.117c0-0.377-0.126-0.67-0.394-0.924
			c-0.275-0.261-0.616-0.389-1.042-0.389c-0.875,0-1.567,0.405-2.124,1.238l-0.564,0.846l-0.563-0.848
			C241.954,16.408,241.36,15.998,240.618,15.762 M234.408,24.344L234.408,24.344c0-1.395,0.526-2.755,1.567-4.037
			c1.074-1.323,2.231-1.994,3.437-1.994c0.657,0,1.232,0.185,1.713,0.548c0.67,0.506,0.812,1.096,0.812,1.503
			s-0.11,0.875-0.336,1.424l-1.435,3.548c-0.331,0.819-1.098,1.799-2.864,1.799h-0.514
			C236.072,27.136,234.408,26.863,234.408,24.344"/>
		<path fill="#FFFFFF" d="M263.162,5h-3.578c-0.062,0.12-0.123,0.243-0.177,0.379l-0.351,0.867h3.743l0.134-0.326
			C263.066,5.576,263.133,5.274,263.162,5"/>
		<polygon fill="#FFFFFF" points="261.656,9.056 257.912,9.056 257.246,10.693 260.99,10.693 		"/>
		<polygon fill="#FFFFFF" points="260.229,12.565 256.486,12.565 255.567,14.827 259.31,14.827 		"/>
		<path fill="#FFFFFF" d="M258.928,15.762h-3.743l-4.291,10.56c-0.475,1.176-0.546,1.669-0.546,1.858c0,0.607,0.2,1.054,0.632,1.405
			c0.463,0.374,1.125,0.563,1.973,0.563h3.692c0.937,0,1.659-0.187,2.142-0.558c0.44-0.336,0.646-0.785,0.646-1.41
			c0-0.372,0-1.147-1.929-1.147h-3.158L258.928,15.762z"/>
	</g>
</g>
</svg>
