<?xml version="1.0" encoding="utf-8"?>
<!-- Generator: Adobe Illustrator 17.0.0, SVG Export Plug-In . SVG Version: 6.00 Build 0)  -->
<!DOCTYPE svg PUBLIC "-//W3C//DTD SVG 1.1//EN" "http://www.w3.org/Graphics/SVG/1.1/DTD/svg11.dtd">
<svg version="1.1" id="Layer_1" xmlns="http://www.w3.org/2000/svg" xmlns:xlink="http://www.w3.org/1999/xlink" x="0px" y="0px"
	 width="64px" height="64px" viewBox="0 0 64 64" enable-background="new 0 0 64 64" xml:space="preserve">
<g>
	<g>
		<polygon fill="#82C2DB" points="52.046,54.843 56.784,49.206 54.852,49.206 54.852,20.249 54.852,14.794 56.784,14.794 
			52.047,9.157 47.309,14.794 49.241,14.794 49.241,43.751 49.241,49.206 47.309,49.206 		"/>
		<path fill="#5A859B" d="M23.971,12.474l9.038-1.269c1.517-0.213,2.918,0.842,3.131,2.353c0.214,1.516-0.843,2.916-2.359,3.129
			l-1.845,0.262c0.488,0.543,0.956,1.127,1.399,1.736l5.398-0.758c1.984-0.279,3.797,0.93,4.045,2.699
			c0.25,1.77-1.16,3.43-3.144,3.709l-3.142,0.443c0.237,0.69,0.441,1.381,0.621,2.066l15.899-2.232
			c1.985-0.281,3.796,0.928,4.045,2.697c0.248,1.77-1.159,3.432-3.146,3.709L37.95,33.263c-0.009,0.744-0.063,1.471-0.156,2.176
			l13.257-1.861c1.985-0.281,3.797,0.928,4.046,2.697c0.248,1.77-1.16,3.43-3.146,3.709l-18.556,2.607
			c-0.205,0.057-0.392,0.121-0.569,0.189c-0.037,0.953-0.261,1.885-0.637,2.74c-1.441,3.285-10.776,2.977-13.03,1.377
			c-1.553-1.102-2.845-2.045-3.92-2.881c-5.231-2.16-7.205-6.982-8.023-12.68c-0.289-1.998-2.936-14.65,14.951-18.633
			C22.757,12.534,23.361,12.464,23.971,12.474"/>
	</g>
</g>
</svg>
